<?xml version="1.0" encoding="UTF-8"?>
<svg version="1.1" xmlns="http://www.w3.org/2000/svg" width="150" height="152">
<path d="M0 0 C0.85810776 -0.00846954 1.71621552 -0.01693909 2.60032654 -0.02566528 C5.41640355 -0.04892122 8.2319302 -0.05005986 11.0480957 -0.04882812 C13.02334303 -0.05593862 14.99858832 -0.06363891 16.97383118 -0.07189941 C21.10858908 -0.08531962 25.24315615 -0.08692497 29.37792969 -0.08105469 C34.64550077 -0.07517333 39.91214548 -0.10569716 45.17953777 -0.14617157 C49.25910776 -0.17217962 53.33845891 -0.17491392 57.41810036 -0.17127991 C59.35834892 -0.17296017 61.2986088 -0.18249592 63.23877525 -0.20042419 C87.44518919 -0.39944053 87.44518919 -0.39944053 96.31034851 7.4276123 C98.07692038 9.33373089 99.56487836 11.28032909 101.03637695 13.41992188 C101.79950195 14.43054688 102.56262695 15.44117188 103.34887695 16.48242188 C106.83642383 22.55333681 107.33237741 28.40867169 107.31103516 35.22583008 C107.31614609 36.07885712 107.32125702 36.93188416 107.32652283 37.8107605 C107.3403552 40.61414728 107.33946659 43.41728639 107.3371582 46.22070312 C107.34104913 48.18214508 107.34538462 50.1435862 107.35014343 52.10502625 C107.35759238 56.21123997 107.35732435 60.31736769 107.35205078 64.42358398 C107.34626347 69.66546559 107.36317585 74.90699301 107.38639545 80.14881611 C107.40118485 84.19907157 107.40199733 88.24924281 107.39888573 92.29952049 C107.3993965 94.23106779 107.40458815 96.1626201 107.41469765 98.09414101 C107.52895746 122.98051109 107.52895746 122.98051109 98.03637695 133.41992188 C91.36711571 139.90893281 83.51720831 142.02484895 74.45263672 141.9375 C73.08487595 141.94801392 73.08487595 141.94801392 71.68948364 141.95874023 C68.70193212 141.97621709 65.71534287 141.96473318 62.7277832 141.95117188 C60.63467733 141.95386998 58.54157268 141.95775505 56.44847107 141.96276855 C52.07164522 141.96864986 47.69514699 141.96014553 43.31835938 141.94140625 C37.72889613 141.91863195 32.14020194 141.93173922 26.55076694 141.95569611 C22.23111762 141.97020308 17.9116483 141.9655254 13.59199333 141.95518494 C11.53206222 141.95253045 9.47211438 141.95574205 7.41220284 141.96510315 C-14.09741692 142.04140677 -14.09741692 142.04140677 -24.21362305 135.23242188 C-32.33509588 126.92637012 -35.27968913 118.87567486 -35.22241211 107.45874023 C-35.22591675 106.58953445 -35.22942139 105.72032867 -35.23303223 104.82478333 C-35.24178949 101.96969467 -35.23602218 99.11485652 -35.22924805 96.25976562 C-35.2305963 94.26632134 -35.23253817 92.27287737 -35.23504639 90.2794342 C-35.23798941 86.10935321 -35.23372597 81.9393581 -35.22436523 77.76928711 C-35.21296381 72.43067315 -35.21953979 67.09226015 -35.23151016 61.75365353 C-35.23874461 57.64008577 -35.23643367 53.52656549 -35.23125458 49.41299629 C-35.22992285 47.44465676 -35.23154905 45.47631289 -35.23621368 43.50797844 C-35.24130575 40.75577276 -35.23353133 38.00389063 -35.22241211 35.25170898 C-35.22646057 34.44271149 -35.23050903 33.63371399 -35.23468018 32.80020142 C-35.1659049 23.58806011 -31.60131305 16.62244598 -25.96362305 9.41992188 C-18.43942551 2.73174628 -9.89277519 -0.03658822 0 0 Z M-1.96362305 45.41992188 C-1.96362305 59.93992188 -1.96362305 74.45992188 -1.96362305 89.41992188 C3.64637695 89.41992188 9.25637695 89.41992188 15.03637695 89.41992188 C15.03637695 85.45992187 15.03637695 81.49992187 15.03637695 77.41992188 C16.26155029 77.43563232 17.48672363 77.45134277 18.74902344 77.4675293 C23.32805718 77.52214608 27.90706256 77.55638677 32.48632812 77.5847168 C34.46196345 77.59973143 36.43756585 77.62014939 38.41308594 77.64624023 C41.26546391 77.6829476 44.11739824 77.69972181 46.9699707 77.71289062 C47.84221786 77.72837448 48.71446503 77.74385834 49.61314392 77.7598114 C56.56977763 77.76168755 63.39023142 76.99991377 68.53637695 71.98242188 C71.19882023 67.43408128 71.39413143 63.69680045 71.03637695 58.41992188 C69.3728185 53.2541351 67.65461015 50.31974272 63.03637695 47.41992188 C58.8632788 45.78584191 55.4094517 45.1736855 50.93920898 45.19287109 C49.75843781 45.19302216 48.57766663 45.19317322 47.3611145 45.19332886 C45.4717366 45.20881271 45.4717366 45.20881271 43.54418945 45.22460938 C42.24311249 45.22743927 40.94203552 45.23026917 39.60153198 45.23318481 C36.15901876 45.24078513 32.71667693 45.26040215 29.27423096 45.28259277 C25.75486613 45.30312926 22.23547251 45.31231308 18.71606445 45.32226562 C11.8226844 45.34258809 4.92977371 45.38174306 -1.96362305 45.41992188 Z " fill="#F4A624" transform="translate(36.963623046875,3.580078125)"/>
<path d="M0 0 C2.4803772 -0.36076355 2.4803772 -0.36076355 5.64306641 -0.34057617 C6.82413971 -0.34034958 8.00521301 -0.34012299 9.22207642 -0.33988953 C11.14242203 -0.31666374 11.14242203 -0.31666374 13.1015625 -0.29296875 C14.40829926 -0.28872391 15.71503601 -0.28447906 17.06137085 -0.28010559 C20.53691786 -0.26864632 24.01208927 -0.23917049 27.48748779 -0.20599365 C31.0332735 -0.17531569 34.57911985 -0.16160516 38.125 -0.14648438 C45.08348771 -0.11430135 52.04172583 -0.06309229 59 0 C59 0.66 59 1.32 59 2 C39.53 2 20.06 2 0 2 C0 16.52 0 31.04 0 46 C5.61 46 11.22 46 17 46 C17 42.04 17 38.08 17 34 C39.77 33.505 39.77 33.505 63 33 C59.90944045 35.06037303 59.29073838 35.24799242 55.80395508 35.22705078 C54.96331009 35.22689972 54.1226651 35.22674866 53.25654602 35.22659302 C52.35333115 35.21627045 51.45011627 35.20594788 50.51953125 35.1953125 C49.12754768 35.19106766 49.12754768 35.19106766 47.70744324 35.18673706 C44.74233121 35.17553836 41.77752079 35.15043435 38.8125 35.125 C36.80273874 35.1149698 34.79297274 35.10584402 32.78320312 35.09765625 C27.85535247 35.07560004 22.92772738 35.04107229 18 35 C18 39.29 18 43.58 18 48 C11.4 48 4.8 48 -2 48 C-2.04587682 41.64606038 -2.08571287 35.2926939 -2.10986328 28.9387207 C-2.11992951 26.77659153 -2.13358354 24.614476 -2.15087891 22.45239258 C-2.17509978 19.34713375 -2.18647681 16.2420547 -2.1953125 13.13671875 C-2.20563507 12.16788254 -2.21595764 11.19904633 -2.22659302 10.20085144 C-2.22674408 9.3001442 -2.22689514 8.39943695 -2.22705078 7.47143555 C-2.231492 6.67867722 -2.23593323 5.88591888 -2.24050903 5.06913757 C-2 3 -2 3 0 0 Z " fill="#DEA546" transform="translate(35,47)"/>
<path d="M0 0 C5.39346988 -0.02464849 10.78690725 -0.04283531 16.18041992 -0.05493164 C18.01668875 -0.05997231 19.85295354 -0.06680477 21.68920898 -0.07543945 C24.32276401 -0.08751672 26.95626616 -0.09323081 29.58984375 -0.09765625 C30.41588608 -0.10281754 31.24192841 -0.10797882 32.09300232 -0.11329651 C34.06236368 -0.11349205 36.03161614 -0.06204152 38 0 C39 1 39 1 39.125 3.5 C39 6 39 6 38 7 C35.27470954 7.17252048 32.57225445 7.2839502 29.84375 7.3515625 C28.61754944 7.38629166 28.61754944 7.38629166 27.36657715 7.42172241 C25.63491156 7.46942482 23.9031763 7.51465111 22.17138672 7.55761719 C19.51113293 7.62471918 16.85133633 7.70245185 14.19140625 7.78125 C12.51303789 7.82616267 10.83465277 7.87045446 9.15625 7.9140625 C8.35521851 7.93796051 7.55418701 7.96185852 6.72888184 7.98648071 C4.81974861 8.03014978 2.90952206 8.02054684 1 8 C0 7 0 7 -0.0625 3.4375 C-0.041875 2.303125 -0.02125 1.16875 0 0 Z " fill="#F6A721" transform="translate(52,62)"/>
<path d="M0 0 C0 0.66 0 1.32 0 2 C-10.13331197 8.5978334 -20.97653185 7.69448255 -32.57421875 7.59375 C-34.66925487 7.59203628 -36.76429314 7.59210723 -38.85932922 7.59387207 C-43.23268372 7.59222523 -47.60552164 7.57363995 -51.97875977 7.54199219 C-57.57052498 7.5022432 -63.16161735 7.49795969 -68.75349712 7.50545502 C-73.07306529 7.50853066 -77.39248357 7.4963842 -81.71201515 7.47932434 C-83.77358879 7.47231973 -85.83517939 7.46916671 -87.89676476 7.47001648 C-90.78003805 7.46820952 -93.66251891 7.44675317 -96.5456543 7.41992188 C-97.80906898 7.42431778 -97.80906898 7.42431778 -99.0980072 7.42880249 C-104.68778857 7.34894442 -108.86285945 6.22078509 -114 4 C-114 3.67 -114 3.34 -114 3 C-112.35 3 -110.7 3 -109 3 C-109 3.66 -109 4.32 -109 5 C-76.33 5 -43.66 5 -10 5 C-9.67 3.68 -9.34 2.36 -9 1 C-5.8035914 -0.06546953 -3.34252724 -0.07427838 0 0 Z " fill="#E3A842" transform="translate(132,138)"/>
<path d="M0 0 C5.39346988 -0.02464849 10.78690725 -0.04283531 16.18041992 -0.05493164 C18.01668875 -0.05997231 19.85295354 -0.06680477 21.68920898 -0.07543945 C24.32276401 -0.08751672 26.95626616 -0.09323081 29.58984375 -0.09765625 C30.41588608 -0.10281754 31.24192841 -0.10797882 32.09300232 -0.11329651 C34.06236368 -0.11349205 36.03161614 -0.06204152 38 0 C39 1 39 1 39.125 3.5 C39 6 39 6 38 7 C36.21928754 7.08726223 34.4351686 7.10699041 32.65234375 7.09765625 C31.57275391 7.09443359 30.49316406 7.09121094 29.38085938 7.08789062 C28.24455078 7.07951172 27.10824219 7.07113281 25.9375 7.0625 C24.79732422 7.05798828 23.65714844 7.05347656 22.48242188 7.04882812 C19.65489649 7.03699747 16.8274736 7.0205141 14 7 C17.20406462 4.86395692 17.99600747 4.75791092 21.66796875 4.8046875 C22.56064453 4.81113281 23.45332031 4.81757812 24.37304688 4.82421875 C25.76620117 4.84935547 25.76620117 4.84935547 27.1875 4.875 C28.12787109 4.88402344 29.06824219 4.89304687 30.03710938 4.90234375 C32.35832968 4.92590944 34.67903644 4.95880884 37 5 C37 3.68 37 2.36 37 1 C25.12 1 13.24 1 1 1 C1 2.98 1 4.96 1 7 C0.67 7 0.34 7 0 7 C0 4.69 0 2.38 0 0 Z " fill="#E3A743" transform="translate(52,62)"/>
<path d="M0 0 C4.28025299 3.39468341 6.0082369 7.73531366 7 13 C6.57421875 15.28125 6.57421875 15.28125 6 17 C6 16.01 6 15.02 6 14 C5.01 13.67 4.02 13.34 3 13 C3 12.34 3 11.68 3 11 C2.34 11 1.68 11 1 11 C1 11.99 1 12.98 1 14 C0.34 13.67 -0.32 13.34 -1 13 C-0.01 10.03 0.98 7.06 2 4 C1.01 3.67 0.02 3.34 -1 3 C-0.67 2.01 -0.34 1.02 0 0 Z " fill="#E9A335" transform="translate(137,17)"/>
<path d="M0 0 C-0.66 1.32 -1.32 2.64 -2 4 C-2.66 3.67 -3.32 3.34 -4 3 C-4 3.66 -4 4.32 -4 5 C-5.71484375 6.4375 -5.71484375 6.4375 -7.9375 8 C-10.98632637 10.04816804 -10.98632637 10.04816804 -13 13 C-13.66 12.67 -14.32 12.34 -15 12 C-7.04854369 0 -7.04854369 0 0 0 Z " fill="#D39B39" transform="translate(22,7)"/>
<path d="M0 0 C0.91007812 0.10183594 1.82015625 0.20367187 2.7578125 0.30859375 C3.45648438 0.39238281 4.15515625 0.47617188 4.875 0.5625 C4.875 1.2225 4.875 1.8825 4.875 2.5625 C-0.405 2.5625 -5.685 2.5625 -11.125 2.5625 C-4.875 -0.5625 -4.875 -0.5625 0 0 Z " fill="#E3A940" transform="translate(33.125,4.4375)"/>
<path d="M0 0 C0 0.66 0 1.32 0 2 C0.66 2 1.32 2 2 2 C3.6875 3.8125 3.6875 3.8125 5 6 C4.67 6.99 4.34 7.98 4 9 C3.505 8.236875 3.01 7.47375 2.5 6.6875 C-0.76726846 3.17518641 -3.4628744 2.43675644 -8 1 C-8 0.67 -8 0.34 -8 0 C-4.71303767 -0.79953138 -3.28976808 -1.09658936 0 0 Z " fill="#E6A542" transform="translate(102,49)"/>
<path d="M0 0 C0.66 0 1.32 0 2 0 C2.66666667 1.66666667 3.33333333 3.33333333 4 5 C4.5878125 6.299375 4.5878125 6.299375 5.1875 7.625 C6 10 6 10 5 13 C1.68441485 8.61487125 0.45003347 5.62541841 0 0 Z " fill="#E4A53B" transform="translate(3,120)"/>
<path d="M0 0 C2.64 0.33 5.28 0.66 8 1 C8 1.66 8 2.32 8 3 C6.02 3.33 4.04 3.66 2 4 C1.34 2.68 0.68 1.36 0 0 Z " fill="#EEAD31" transform="translate(54,66)"/>
<path d="M0 0 C0.99 0.33 1.98 0.66 3 1 C2.67 2.32 2.34 3.64 2 5 C0.35 4.67 -1.3 4.34 -3 4 C-3 3.34 -3 2.68 -3 2 C-2.01 2 -1.02 2 0 2 C0 1.34 0 0.68 0 0 Z " fill="#EAA32D" transform="translate(9,18)"/>
</svg>
